PathFileType	4	(X/Y/Z)	./resultDataOpenSim/trcMotMarkerGrf/sub09/qtm-13-08.trc
DataRate	CameraRate	NumFrames	NumMarkers	Units	OrigDataRate	OrigDataStartFrame	OrigNumFrames
250.000000	250.000000	5	24	m	250.000000	180	479
Frame#	Time	L.Toe.Tip			R.Toe.Tip			L.Ankle.Lat			R.Ankle.Lat			L.Ankle.Med			R.Ankle.Med			L.Heel			R.Heel			L.Knee.Lat			R.Knee.Lat			L.Knee.Med			R.Knee.Med			L.Thigh.Upper			R.Thigh.Upper			L.ASIS			R.ASIS			V.Sacral			L.Acromium			R.Acromium			C7			L.Elbow			R.Elbow			L.Wrist.Lat			R.Wrist.Lat
		X1	Y1	Z1	X2	Y2	Z2	X3	Y3	Z3	X4	Y4	Z4	X5	Y5	Z5	X6	Y6	Z6	X7	Y7	Z7	X8	Y8	Z8	X9	Y9	Z9	X10	Y10	Z10	X11	Y11	Z11	X12	Y12	Z12	X13	Y13	Z13	X14	Y14	Z14	X15	Y15	Z15	X16	Y16	Z16	X17	Y17	Z17	X18	Y18	Z18	X19	Y19	Z19	X20	Y20	Z20	X21	Y21	Z21	X22	Y22	Z22	X23	Y23	Z23	X24	Y24	Z24

180	0.716	0.15034735	-0.010002987	-0.04881742	-0.60267581	0.055358331	0.065832499	0.0019575098	0.023532493	-0.091855244	-0.67387228	0.18808439	0.093668354	0.019420336	0.04325273	0.0047884809	-0.62186363	0.18974078	0.0087844753	-0.070088176	-0.012156121	-0.047670598	-0.71989807	0.22164317	0.029372751	0.050051214	0.434718	-0.14422746	-0.27750384	0.40691482	0.17446224	0.0475948	0.44002935	-0.019307842	-0.26756188	0.37977107	0.047759931	-0.15636153	0.80205558	-0.18543014	-0.22277083	0.79774448	0.18551511	-0.095463268	0.88764746	-0.11421824	-0.11047826	0.87869946	0.12697526	-0.26955819	0.93535916	-0.0066866311	-0.10629771	1.3328985	-0.16190284	-0.14517619	1.3447873	0.16813392	-0.19162055	1.3904211	-0.0028343633	-0.26028113	1.0021721	-0.22951807	-0.25289063	0.98882273	0.25511367	-0.14901785	0.76628768	-0.26932065	-0.053388856	0.79766197	0.25154049
181	0.72	0.15024798	-0.010074021	-0.048682874	-0.59853103	0.057674131	0.066171484	0.0021329552	0.02310881	-0.091921576	-0.66398297	0.19375861	0.094312383	0.019488221	0.043000789	0.0048296757	-0.61182207	0.19343153	0.0096493547	-0.070216639	-0.012191066	-0.047814695	-0.70871459	0.22899125	0.0299219	0.054093527	0.43315459	-0.14454129	-0.2659242	0.4051384	0.175181	0.053275114	0.43813755	-0.019737629	-0.25422453	0.37741119	0.048340525	-0.14996224	0.80219399	-0.18594891	-0.21594056	0.79659869	0.18499238	-0.088916781	0.88814743	-0.11517252	-0.10396689	0.87817077	0.12615405	-0.26269133	0.93513234	-0.0077195825	-0.098533913	1.3327832	-0.16181435	-0.13759953	1.3446041	0.16805594	-0.18431875	1.3902019	-0.002732831	-0.25196375	1.0019958	-0.22959665	-0.24730265	0.98926236	0.25452369	-0.14049568	0.76600123	-0.26914904	-0.049037056	0.79679954	0.2517984
182	0.724	0.15023366	-0.010129266	-0.048592197	-0.59393619	0.060046699	0.066567843	0.0024472155	0.022727112	-0.091952751	-0.65360075	0.19923695	0.094904327	0.019749281	0.042813615	0.0048650092	-0.60151127	0.1971907	0.010427292	-0.070249844	-0.012134463	-0.04787821	-0.69712257	0.23617483	0.03058608	0.05786512	0.43167906	-0.14475404	-0.25392639	0.40334487	0.17562292	0.058434806	0.4360408	-0.0202738	-0.24105481	0.3754059	0.048869438	-0.14347456	0.80227784	-0.18634886	-0.20927245	0.79554403	0.18448166	-0.082440159	0.88859182	-0.11599555	-0.097588233	0.87775067	0.12544769	-0.25565476	0.93525635	-0.0090430277	-0.090794986	1.3327401	-0.16172096	-0.13001678	1.344471	0.16800552	-0.17717114	1.3900839	-0.0027854832	-0.24368391	1.0018755	-0.2297071	-0.2417373	0.98975823	0.25408581	-0.13191224	0.76580037	-0.26892909	-0.04475775	0.79594039	0.25204879
183	0.728	0.15029994	-0.010177078	-0.048548407	-0.58886463	0.062460912	0.06706405	0.0028679351	0.022424746	-0.091956349	-0.64281255	0.20448198	0.095436764	0.020167594	0.042676746	0.0048935959	-0.59088319	0.20100339	0.011098858	-0.070201882	-0.01200369	-0.047887503	-0.68523156	0.24312417	0.031434154	0.061470387	0.43029694	-0.14492304	-0.2416919	0.40165192	0.17585968	0.063052452	0.43393222	-0.020900076	-0.22809395	0.37378763	0.04928504	-0.13695613	0.80235204	-0.18671449	-0.20273156	0.79461909	0.1839686	-0.075968333	0.8890135	-0.11662037	-0.091348665	0.8774535	0.12486046	-0.24827222	0.93567582	-0.010146277	-0.083079468	1.3327676	-0.16162879	-0.1224947	1.3444	0.16798403	-0.17012945	1.3901016	-0.0031007569	-0.2354388	1.0018111	-0.22985589	-0.23620424	0.99030519	0.25382364	-0.12327545	0.7656896	-0.26866205	-0.040560706	0.7950899	0.25228627
184	0.732	0.15039977	-0.010218429	-0.048554433	-0.58321883	0.064939534	0.067682485	0.0033267407	0.022197894	-0.091954278	-0.63169282	0.20945106	0.095921324	0.020636303	0.042564229	0.0049151956	-0.57992491	0.2048023	0.011690511	-0.070122378	-0.011847447	-0.04787586	-0.67309713	0.24979198	0.032450792	0.064984428	0.42903705	-0.14519023	-0.22947271	0.40019705	0.17601407	0.067242831	0.43199665	-0.02149526	-0.21527752	0.37257756	0.049517933	-0.13038981	0.80248205	-0.18711405	-0.19625594	0.79385031	0.18343267	-0.069339673	0.88944963	-0.11692482	-0.085240167	0.8772882	0.12438655	-0.24110899	0.93633195	-0.010732923	-0.075374056	1.3328582	-0.16153728	-0.11507784	1.3443978	0.16798627	-0.16309021	1.3902985	-0.0035150813	-0.22722679	1.001804	-0.23004964	-0.23068295	0.99089576	0.25370969	-0.11458639	0.76566898	-0.2683527	-0.036438982	0.79425257	0.25250894
